<?xml version="1.0" encoding="UTF-8" standalone="no"?>
<!DOCTYPE svg PUBLIC "-//W3C//DTD SVG 1.1//EN" "http://www.w3.org/Graphics/SVG/1.1/DTD/svg11.dtd">
<svg version="1.1" xmlns="http://www.w3.org/2000/svg" xmlns:xlink="http://www.w3.org/1999/xlink" preserveAspectRatio="xMidYMid meet" viewBox="0 0 640 640" width="640" height="640"><defs><path d="M36.17 332.72L32.77 332.72" id="f4iclqJq51"></path><path d="M36.17 332.72L36.77 300.72L36.17 332.72Z" id="d2Jm41QNuk"></path><path d="M32.77 332.32L33.57 258.52L35.17 257.72L44.17 258.52L51.97 261.52L54.57 271.92L55.17 286.72L48.97 298.32L36.77 300.72" id="b1eb4Y8HNw"></path><path d="M36.77 296.72L43.57 297.28L36.77 296.72Z" id="a3wGuVPEPj"></path><path d="" id="cBZQ5tMJ"></path><path d="" id="ciONpGWQs"></path><path d="M36.77 296.12L36.77 269.52L36.77 261.52L41.57 261.52L46.37 262.72L50.57 268.32L51.37 276.32L51.37 283.72L48.77 292.52L43.57 297" id="d36c8uNKI"></path><path d="M90.37 259.12L94.57 259.12L107.17 333.12L102.57 333.12L92.37 266.92L83.17 332.72L78.77 332.72L90.37 259.12Z" id="fg3d9OamK"></path><path d="M129.33 328.2L133.19 333.12L147.05 333.12L148.62 331.63L151.48 326.48L151.48 295.63L149.33 292.34L136.05 292.34L133.62 290.63L133.62 264.63L135.62 262.06L145.76 262.06L147.33 264.63L148.05 281.48L151.48 281.48L151.48 262.63L148.05 258.48L134.05 258.48L129.9 263.2L129.9 293.48L132.76 296.12L145.19 296.91L147.33 299.2L147.33 326.06L144.76 329.2L135.62 329.2L133.19 327.2L132.76 309.2L129.33 309.2L129.33 328.2Z" id="e18UZSs1QP"></path><path d="M175.59 328.29L179.22 333.12L194.47 332.42L197.47 327.54L197.47 295.8L194.47 292.42L182.84 292.42L179.72 291.17L179.72 278.29L179.72 264.79L182.09 262.04L191.97 262.54L193.72 264.79L194.47 282.04L197.47 282.04L197.47 262.54L193.72 258.48L179.72 258.92L175.59 263.67L175.59 293.17L178.22 296.42L190.97 296.42L193.22 299.29L193.22 325.54L190.97 328.67L181.22 328.67L179.22 326.17L179.22 309.17L175.09 309.17L175.59 328.29Z" id="f5CfSqf1Ix"></path><path d="M299.77 258.48L299.77 262.39L289.77 262.39L289.77 333.12L285.57 333.12L285.57 262.39L277.37 262.39L277.37 258.48L299.77 258.48Z" id="d6LyiqMW5b"></path><path d="M323.15 332.5L327.01 332.5L327.44 296.79L341.3 296.79L341.3 332.5L345.3 332.5L345.73 258.5L341.87 258.5L341.3 292.5L327.01 292.5L327.44 258.5L323.15 258.5L323.15 332.5Z" id="jc8BAq54i"></path><path d="M369.15 258.5L369.15 332.5L390.73 333.36L390.73 329.36L373.15 329.36L373.15 296.93L389.58 296.93L389.58 292.93L373.15 292.93L373.15 262.36L390.73 262.36L390.73 258.5L369.15 258.5Z" id="d1WzQGHUO7"></path><path d="M479.04 307.79L489.44 307.79L493.84 332.99L498.84 332.99L486.84 258.79L482.04 258.79" id="aKNlAJo4v"></path><path d="M482.04 258.79L470.84 332.59L474.84 332.59L479.64 307.79" id="ahuFrHpQB"></path><path d="M480.02 304.04L488.94 304.65L484.72 266.79L480.02 304.04Z" id="a6wJA7rHRO"></path><path d="M521.35 328.19L525.63 332.99L540.92 332.99L543.92 328.19L543.92 259.19L539.92 259.19L539.92 325.9L537.06 329.9L528.49 329.9L525.63 325.9L525.63 259.19L521.35 259.19L521.35 328.19Z" id="e3dnpyHoaI"></path><path d="M574.51 295.33L567.36 333.33L571.65 333.33L578.51 297.9L585.36 333.33L589.93 333.33L582.36 294.76L589.93 259.19L586.22 259.19L578.51 292.19L571.08 259.19L567.36 259.19L574.51 295.33Z" id="jqTSxkfD0"></path><path d="M581.41 346.52L581.41 350.32L605.61 350.32L605.61 359.32L582.41 359.32L582.41 363.52L541.41 363.12L536.21 358.52L517.61 358.52L517.61 351.12" id="djodzOhJ7"></path><path d="M581.61 349.72L581.61 345.52L540.81 345.52L536.01 350.52L517.61 350.52" id="c4mctrauSB"></path><path d="M608.81 358.72L618.81 358.72L618.81 350.52L608.81 350.52L608.81 358.72Z" id="d5WHIdChu3"></path><path d="" id="b2znk916LP"></path><path d="M621.81 358.72L621.81 350.52" id="fnhTzYdZw"></path><path d="M638.81 352.92L638.81 357.52L635.81 359.32L633.21 358.72L631.21 357.52L628.01 357.52L625.81 358.72L621.81 358.72" id="b231kh8fa2"></path><path d="M636.01 350.52L633.01 350.52L630.31 351.92L627.41 351.92L626.01 350.52L621.81 350.52" id="a3kW6Ab0Da"></path><path d="M638.81 352.92L636.01 350.52" id="h2GbKijjz6"></path><path d="M508.52 350.52L24.52 350.52L24.52 358.72L508.52 358.72L508.52 350.52Z" id="b1UfZOStIS"></path></defs><g><g><g><g><use xlink:href="#f4iclqJq51" opacity="1" fill-opacity="0" stroke="#000000" stroke-width="1" stroke-opacity="1"></use></g></g><g><g><use xlink:href="#d2Jm41QNuk" opacity="1" fill-opacity="0" stroke="#000000" stroke-width="1" stroke-opacity="1"></use></g></g><g><g><use xlink:href="#b1eb4Y8HNw" opacity="1" fill-opacity="0" stroke="#000000" stroke-width="1" stroke-opacity="1"></use></g></g><g><g><use xlink:href="#a3wGuVPEPj" opacity="1" fill-opacity="0" stroke="#000000" stroke-width="1" stroke-opacity="1"></use></g></g><g><g><use xlink:href="#cBZQ5tMJ" opacity="1" fill-opacity="0" stroke="#000000" stroke-width="1" stroke-opacity="1"></use></g></g><g><g><use xlink:href="#ciONpGWQs" opacity="1" fill-opacity="0" stroke="#000000" stroke-width="1" stroke-opacity="1"></use></g></g><g><g><use xlink:href="#d36c8uNKI" opacity="1" fill-opacity="0" stroke="#000000" stroke-width="1" stroke-opacity="1"></use></g></g><g><g><use xlink:href="#fg3d9OamK" opacity="1" fill-opacity="0" stroke="#000000" stroke-width="1" stroke-opacity="1"></use></g></g><g><g><use xlink:href="#e18UZSs1QP" opacity="1" fill-opacity="0" stroke="#000000" stroke-width="1" stroke-opacity="1"></use></g></g><g><g><use xlink:href="#f5CfSqf1Ix" opacity="1" fill-opacity="0" stroke="#000000" stroke-width="1" stroke-opacity="1"></use></g></g><g><g><use xlink:href="#d6LyiqMW5b" opacity="1" fill-opacity="0" stroke="#000000" stroke-width="1" stroke-opacity="1"></use></g></g><g><g><use xlink:href="#jc8BAq54i" opacity="1" fill-opacity="0" stroke="#000000" stroke-width="1" stroke-opacity="1"></use></g></g><g><g><use xlink:href="#d1WzQGHUO7" opacity="1" fill-opacity="0" stroke="#000000" stroke-width="1" stroke-opacity="1"></use></g></g><g><g><use xlink:href="#aKNlAJo4v" opacity="1" fill-opacity="0" stroke="#000000" stroke-width="1" stroke-opacity="1"></use></g></g><g><g><use xlink:href="#ahuFrHpQB" opacity="1" fill-opacity="0" stroke="#000000" stroke-width="1" stroke-opacity="1"></use></g></g><g><g><use xlink:href="#a6wJA7rHRO" opacity="1" fill-opacity="0" stroke="#000000" stroke-width="1" stroke-opacity="1"></use></g></g><g><g><use xlink:href="#e3dnpyHoaI" opacity="1" fill-opacity="0" stroke="#000000" stroke-width="1" stroke-opacity="1"></use></g></g><g><g><use xlink:href="#jqTSxkfD0" opacity="1" fill-opacity="0" stroke="#000000" stroke-width="1" stroke-opacity="1"></use></g></g><g><g><use xlink:href="#djodzOhJ7" opacity="1" fill-opacity="0" stroke="#000000" stroke-width="1" stroke-opacity="1"></use></g></g><g><g><use xlink:href="#c4mctrauSB" opacity="1" fill-opacity="0" stroke="#000000" stroke-width="1" stroke-opacity="1"></use></g></g><g><g><use xlink:href="#d5WHIdChu3" opacity="1" fill-opacity="0" stroke="#000000" stroke-width="1" stroke-opacity="1"></use></g></g><g><g><use xlink:href="#b2znk916LP" opacity="1" fill-opacity="0" stroke="#000000" stroke-width="1" stroke-opacity="1"></use></g></g><g><g><use xlink:href="#fnhTzYdZw" opacity="1" fill-opacity="0" stroke="#000000" stroke-width="1" stroke-opacity="1"></use></g></g><g><g><use xlink:href="#b231kh8fa2" opacity="1" fill-opacity="0" stroke="#000000" stroke-width="1" stroke-opacity="1"></use></g></g><g><g><use xlink:href="#a3kW6Ab0Da" opacity="1" fill-opacity="0" stroke="#000000" stroke-width="1" stroke-opacity="1"></use></g></g><g><g><use xlink:href="#h2GbKijjz6" opacity="1" fill-opacity="0" stroke="#000000" stroke-width="1" stroke-opacity="1"></use></g></g><g><g><use xlink:href="#b1UfZOStIS" opacity="1" fill-opacity="0" stroke="#000000" stroke-width="1" stroke-opacity="1"></use></g></g></g></g></svg>