<svg xmlns="http://www.w3.org/2000/svg" 
    xmlns:xlink="http://www.w3.org/1999/xlink" width="640" height="640"  viewBox="0 0 1000 1000">
    <defs>
        <path d="M36.17 332.72h-3.4" id="a"/>
        <path d="M36.17 332.72l.6-32-.6 32z" id="b"/>
        <path d="M32.77 332.32l.8-73.8 1.6-.8 9 .8 7.8 3 2.6 10.4.6 14.8-6.2 11.6-12.2 2.4" id="c"/>
        <path d="M36.77 296.72l6.8.56-6.8-.56z" id="d"/>
        <path d="M36.77 296.12v-34.6h4.8l4.8 1.2 4.2 5.6.8 8v7.4l-2.6 8.8-5.2 4.48" id="g"/>
        <path d="M90.37 259.12h4.2l12.6 74h-4.6l-10.2-66.2-9.2 65.8h-4.4l11.6-73.6z" id="h"/>
        <path d="M129.33 328.2l3.86 4.92h13.86l1.57-1.49 2.86-5.15v-30.85l-2.15-3.29h-13.28l-2.43-1.71v-26l2-2.57h10.14l1.57 2.57.72 16.85h3.43v-18.85l-3.43-4.15h-14l-4.15 4.72v30.28l2.86 2.64 12.43.79 2.14 2.29v26.86l-2.57 3.14h-9.14l-2.43-2-.43-18h-3.43v19z" id="i"/>
        <path d="M175.59 328.29l3.63 4.83 15.25-.7 3-4.88V295.8l-3-3.38h-11.63l-3.12-1.25V264.79l2.37-2.75 9.88.5 1.75 2.25.75 17.25h3v-19.5l-3.75-4.06-14 .44-4.13 4.75v29.5l2.63 3.25h12.75l2.25 2.87v26.25l-2.25 3.13h-9.75l-2-2.5v-17h-4.13l.5 19.12z" id="j"/>
        <path d="M299.77 258.48v3.91h-10v70.73h-4.2v-70.73h-8.2v-3.91h22.4z" id="k"/>
        <path d="M323.15 332.5h3.86l.43-35.71h13.86v35.71h4l.43-74h-3.86l-.57 34h-14.29l.43-34h-4.29v74z" id="l"/>
        <path d="M369.15 258.5v74l21.58.86v-4h-17.58v-32.43h16.43v-4h-16.43v-30.57h17.58v-3.86h-21.58z" id="m"/>
        <path d="M479.04 307.79h10.4l4.4 25.2h5l-12-74.2h-4.8" id="n"/>
        <path d="M482.04 258.79l-11.2 73.8h4l4.8-24.8" id="o"/>
        <path d="M480.02 304.04l8.92.61-4.22-37.86-4.7 37.25z" id="p"/>
        <path d="M521.35 328.19l4.28 4.8h15.29l3-4.8v-69h-4v66.71l-2.86 4h-8.57l-2.86-4v-66.71h-4.28v69z" id="q"/>
        <path d="M574.51 295.33l-7.15 38h4.29l6.86-35.43 6.85 35.43h4.57l-7.57-38.57 7.57-35.57h-3.71l-7.71 33-7.43-33h-3.72l7.15 36.14z" id="r"/>
        <path d="M581.41 346.52v3.8h24.2v9h-23.2v4.2l-41-.4-5.2-4.6h-18.6v-7.4" id="s"/>
        <path d="M581.61 349.72v-4.2h-40.8l-4.8 5h-18.4" id="t"/>
        <path d="M608.81 358.72h10v-8.2h-10v8.2z" id="u"/>
        <path d="M621.81 358.72v-8.2" id="w"/>
        <path d="M638.81 352.92v4.6l-3 1.8-2.6-.6-2-1.2h-3.2l-2.2 1.2h-4" id="x"/>
        <path d="M636.01 350.52h-3l-2.7 1.4h-2.9l-1.4-1.4h-4.2" id="y"/>
        <path d="M638.81 352.92l-2.8-2.4" id="z"/>
        <path d="M508.52 350.52h-484v8.2h484v-8.2z" id="A"/>
    </defs>
    <use xlink:href="#a" fill-opacity="0" stroke="#000"/>
    <use xlink:href="#b" fill-opacity="0" stroke="#000"/>
    <use xlink:href="#c" fill-opacity="0" stroke="#000"/>
    <use xlink:href="#d" fill-opacity="0" stroke="#000"/>
    <use xlink:href="#e" fill-opacity="0" stroke="#000"/>
    <use xlink:href="#f" fill-opacity="0" stroke="#000"/>
    <use xlink:href="#g" fill-opacity="0" stroke="#000"/>
    <use xlink:href="#h" fill-opacity="0" stroke="#000"/>
    <use xlink:href="#i" fill-opacity="0" stroke="#000"/>
    <use xlink:href="#j" fill-opacity="0" stroke="#000"/>
    <use xlink:href="#k" fill-opacity="0" stroke="#000"/>
    <use xlink:href="#l" fill-opacity="0" stroke="#000"/>
    <use xlink:href="#m" fill-opacity="0" stroke="#000"/>
    <use xlink:href="#n" fill-opacity="0" stroke="#000"/>
    <use xlink:href="#o" fill-opacity="0" stroke="#000"/>
    <use xlink:href="#p" fill-opacity="0" stroke="#000"/>
    <use xlink:href="#q" fill-opacity="0" stroke="#000"/>
    <use xlink:href="#r" fill-opacity="0" stroke="#000"/>
    <use xlink:href="#s" fill-opacity="0" stroke="#000"/>
    <use xlink:href="#t" fill-opacity="0" stroke="#000"/>
    <use xlink:href="#u" fill-opacity="0" stroke="#000"/>
    <use xlink:href="#v" fill-opacity="0" stroke="#000"/>
    <use xlink:href="#w" fill-opacity="0" stroke="#000"/>
    <use xlink:href="#x" fill-opacity="0" stroke="#000"/>
    <use xlink:href="#y" fill-opacity="0" stroke="#000"/>
    <use xlink:href="#z" fill-opacity="0" stroke="#000"/>
    <use xlink:href="#A" fill-opacity="0" stroke="#000"/>
</svg>